<svg width="168" height="60" viewBox="0 0 168 60" fill="none" xmlns="http://www.w3.org/2000/svg">
<path d="M21.6417 53.2835C33.5941 53.2835 43.2835 43.5941 43.2835 31.6417C43.2835 19.6893 33.5941 10 21.6417 10C9.68933 10 0 19.6893 0 31.6417C0 43.5941 9.68933 53.2835 21.6417 53.2835Z" fill="#FF8300"/>
<path d="M17.8424 31.7994C18.1774 31.7994 18.4489 31.6636 18.4489 31.4961C18.4489 31.3287 18.1774 31.1929 17.8424 31.1929C17.5074 31.1929 17.2358 31.3287 17.2358 31.4961C17.2358 31.6636 17.5074 31.7994 17.8424 31.7994Z" fill="#009245"/>
<path d="M31.4824 42.6592C30.854 42.584 30.5531 42.5719 30.427 42.5573C30.279 42.5403 30.0364 42.5185 29.8859 42.5064C28.5539 42.4045 25.9628 42.1327 23.9708 41.8513C22.4884 41.6426 19.6134 41.1161 16.9082 39.1291C16.0372 38.4886 15.2608 37.7389 14.6664 36.8291C19.5139 40.1238 24.8637 40.6115 30.4901 39.6289C29.4371 39.493 28.3817 39.3717 27.3287 39.231C24.4973 38.8549 21.7824 38.1052 19.3465 36.5573C17.6773 35.4971 16.2118 34.2185 15.3991 32.3479C15.2656 32.0397 15.1831 31.7098 15.0788 31.3919C17.112 33.1461 19.2737 34.5751 21.7339 35.5335C24.1892 36.4918 26.7197 36.9237 29.3594 36.6689C28.4836 36.2783 27.5883 35.9605 26.7052 35.6159C24.2596 34.6552 21.928 33.4954 20.0792 31.5642C19.4702 30.9285 18.9098 30.2419 18.5289 29.2811C22.2143 32.0227 26.8435 33.9443 28.9179 33.6095L28.7699 33.214C28.6825 32.9811 28.5855 32.7506 28.4763 32.525C27.5398 30.5986 26.1423 29.0579 24.4512 27.7575C23.6627 27.1509 22.8621 26.5492 22.156 25.8529C21.3651 25.0741 21.37 24.2176 22.2167 23.5213C22.8621 22.99 23.636 22.5436 24.4245 22.2718C25.5406 21.8861 26.7222 21.6968 27.8989 21.4202C27.433 20.5905 26.7343 19.9427 25.7929 19.7389C24.8249 19.5302 23.7986 19.3895 22.8208 19.4793C21.6344 19.5885 20.4407 19.5715 19.2567 19.438C15.8431 19.0498 13.4436 20.7409 12.575 24.0624C12.2038 25.4841 12.1188 26.9277 12.1965 28.3907C12.2086 28.6212 12.0994 28.9633 11.9272 29.0846C10.093 30.3826 9.58589 32.212 9.90372 34.3009C9.97408 34.7692 10.1342 35.9144 10.8621 37.273C12.1989 39.772 14.3558 41.0579 15.2268 41.5626C21.5374 45.2237 31.0723 42.9018 31.4775 42.6641C31.4872 42.6641 31.4848 42.6592 31.4824 42.6592ZM18.1261 21.7065C18.4512 21.7065 18.7157 21.8375 18.7157 22.0025C18.7157 22.1651 18.4512 22.2985 18.1261 22.2985C17.801 22.2985 17.5366 22.1675 17.5366 22.0025C17.5366 21.8375 17.801 21.7065 18.1261 21.7065Z" fill="white"/>
<path d="M63.1286 21.2782H66.8175V34.5822C66.8175 36.0405 66.4728 37.3232 65.7834 38.4302C65.1007 39.5372 64.1395 40.4023 62.8999 41.0254C61.6603 41.6418 60.212 41.9501 58.5548 41.9501C56.8909 41.9501 55.4392 41.6418 54.1996 41.0254C52.9601 40.4023 51.9989 39.5372 51.3161 38.4302C50.6334 37.3232 50.292 36.0405 50.292 34.5822V21.2782H53.9809V34.2739C53.9809 35.1224 54.1665 35.8781 54.5377 36.541C54.9155 37.2039 55.4459 37.7242 56.1286 38.1021C56.8114 38.4733 57.6201 38.6589 58.5548 38.6589C59.4894 38.6589 60.2981 38.4733 60.9809 38.1021C61.6703 37.7242 62.2006 37.2039 62.5718 36.541C62.943 35.8781 63.1286 35.1224 63.1286 34.2739V21.2782ZM74.2675 21.2782V41.6418H70.668V21.2782H74.2675ZM85.5952 26.3691V29.1532H76.8154V26.3691H85.5952ZM78.983 22.71H82.5825V37.0481C82.5825 37.532 82.6554 37.9032 82.8012 38.1617C82.9537 38.4136 83.1525 38.586 83.3978 38.6788C83.6431 38.7716 83.9148 38.818 84.2131 38.818C84.4385 38.818 84.644 38.8014 84.8296 38.7683C85.0218 38.7351 85.1677 38.7053 85.2671 38.6788L85.8736 41.4927C85.6814 41.559 85.4063 41.6319 85.0484 41.7114C84.697 41.791 84.2662 41.8374 83.7557 41.8507C82.8542 41.8772 82.0422 41.7413 81.3197 41.443C80.5971 41.1381 80.0237 40.6674 79.5995 40.0311C79.1819 39.3947 78.9764 38.5992 78.983 37.6447V22.71ZM88.6055 41.6418V26.3691H92.0956V28.9146H92.2547C92.5331 28.0329 93.0104 27.3535 93.6865 26.8762C94.3693 26.3923 95.1481 26.1504 96.0231 26.1504C96.222 26.1504 96.4441 26.1603 96.6893 26.1802C96.9412 26.1935 97.15 26.2167 97.3158 26.2498V29.5609C97.1633 29.5078 96.9214 29.4614 96.5899 29.4217C96.2651 29.3753 95.9502 29.3521 95.6453 29.3521C94.9891 29.3521 94.3991 29.4946 93.8754 29.7796C93.3584 30.058 92.9507 30.4458 92.6524 30.943C92.3541 31.4401 92.205 32.0135 92.205 32.6632V41.6418H88.6055ZM103.829 41.9501C102.861 41.9501 101.989 41.7777 101.213 41.433C100.445 41.0817 99.8347 40.5647 99.3839 39.8819C98.9398 39.1991 98.7178 38.3573 98.7178 37.3563C98.7178 36.4946 98.8768 35.782 99.195 35.2185C99.5132 34.6551 99.9474 34.2043 100.498 33.8663C101.048 33.5282 101.668 33.273 102.357 33.1007C103.053 32.9217 103.772 32.7924 104.515 32.7129C105.41 32.6201 106.135 32.5372 106.692 32.4643C107.249 32.3847 107.653 32.2654 107.905 32.1063C108.164 31.9406 108.293 31.6854 108.293 31.3407V31.2811C108.293 30.532 108.071 29.952 107.627 29.541C107.183 29.13 106.543 28.9245 105.708 28.9245C104.826 28.9245 104.127 29.1168 103.61 29.5012C103.099 29.8857 102.755 30.3398 102.576 30.8634L99.2149 30.3862C99.4801 29.4581 99.9176 28.6826 100.527 28.0595C101.137 27.4297 101.883 26.9591 102.765 26.6475C103.646 26.3293 104.621 26.1703 105.688 26.1703C106.424 26.1703 107.156 26.2564 107.885 26.4288C108.615 26.6011 109.281 26.8862 109.884 27.2839C110.487 27.675 110.971 28.2086 111.336 28.8847C111.707 29.5609 111.892 30.406 111.892 31.4203V41.6418H108.432V39.5438H108.313C108.094 39.9681 107.786 40.3658 107.388 40.737C106.997 41.1016 106.503 41.3966 105.907 41.622C105.317 41.8407 104.624 41.9501 103.829 41.9501ZM104.763 39.3052C105.486 39.3052 106.112 39.1627 106.642 38.8776C107.173 38.586 107.58 38.2015 107.865 37.7242C108.157 37.247 108.303 36.7266 108.303 36.1632V34.3634C108.19 34.4562 107.998 34.5424 107.726 34.622C107.461 34.7015 107.163 34.7711 106.831 34.8308C106.5 34.8904 106.172 34.9435 105.847 34.9899C105.522 35.0363 105.24 35.076 105.002 35.1092C104.465 35.1821 103.984 35.3014 103.56 35.4671C103.136 35.6328 102.801 35.8649 102.556 36.1632C102.311 36.4548 102.188 36.8327 102.188 37.2967C102.188 37.9596 102.43 38.46 102.914 38.7981C103.398 39.1362 104.014 39.3052 104.763 39.3052ZM115.512 47.3691V26.3691H119.052V28.8947H119.26C119.446 28.5235 119.708 28.1291 120.046 27.7114C120.384 27.2872 120.841 26.9259 121.418 26.6276C121.995 26.3227 122.731 26.1703 123.625 26.1703C124.805 26.1703 125.869 26.4719 126.817 27.0751C127.772 27.6717 128.527 28.5566 129.084 29.7299C129.648 30.8966 129.929 32.3284 129.929 34.0254C129.929 35.7025 129.654 37.1276 129.104 38.3009C128.554 39.4742 127.805 40.3691 126.857 40.9856C125.909 41.6021 124.835 41.9103 123.635 41.9103C122.76 41.9103 122.035 41.7645 121.458 41.4728C120.881 41.1811 120.417 40.8298 120.066 40.4188C119.721 40.0012 119.453 39.6068 119.26 39.2356H119.111V47.3691H115.512ZM119.042 34.0055C119.042 34.9932 119.181 35.8582 119.459 36.6007C119.744 37.3431 120.152 37.9231 120.682 38.3407C121.219 38.7517 121.869 38.9572 122.631 38.9572C123.427 38.9572 124.093 38.7451 124.63 38.3208C125.167 37.89 125.571 37.3033 125.843 36.5609C126.121 35.8118 126.26 34.96 126.26 34.0055C126.26 33.0576 126.124 32.2157 125.853 31.4799C125.581 30.7441 125.177 30.1674 124.64 29.7498C124.103 29.3322 123.433 29.1234 122.631 29.1234C121.862 29.1234 121.209 29.3256 120.672 29.7299C120.135 30.1343 119.728 30.701 119.449 31.4302C119.178 32.1594 119.042 33.0178 119.042 34.0055ZM133.012 41.6418V26.3691H136.502V28.9146H136.661C136.939 28.0329 137.417 27.3535 138.093 26.8762C138.776 26.3923 139.554 26.1504 140.429 26.1504C140.628 26.1504 140.85 26.1603 141.096 26.1802C141.347 26.1935 141.556 26.2167 141.722 26.2498V29.5609C141.57 29.5078 141.328 29.4614 140.996 29.4217C140.671 29.3753 140.356 29.3521 140.052 29.3521C139.395 29.3521 138.805 29.4946 138.282 29.7796C137.765 30.058 137.357 30.4458 137.059 30.943C136.76 31.4401 136.611 32.0135 136.611 32.6632V41.6418H133.012ZM150.146 41.9401C148.655 41.9401 147.362 41.612 146.269 40.9558C145.175 40.2995 144.326 39.3814 143.723 38.2015C143.126 37.0216 142.828 35.6428 142.828 34.0651C142.828 32.4875 143.126 31.1054 143.723 29.9188C144.326 28.7323 145.175 27.8109 146.269 27.1546C147.362 26.4984 148.655 26.1703 150.146 26.1703C151.638 26.1703 152.93 26.4984 154.024 27.1546C155.118 27.8109 155.963 28.7323 156.56 29.9188C157.163 31.1054 157.465 32.4875 157.465 34.0651C157.465 35.6428 157.163 37.0216 156.56 38.2015C155.963 39.3814 155.118 40.2995 154.024 40.9558C152.93 41.612 151.638 41.9401 150.146 41.9401ZM150.166 39.0566C150.975 39.0566 151.651 38.8346 152.195 38.3904C152.738 37.9397 153.143 37.3364 153.408 36.5808C153.68 35.8251 153.815 34.9832 153.815 34.0552C153.815 33.1205 153.68 32.2754 153.408 31.5197C153.143 30.7574 152.738 30.1508 152.195 29.7001C151.651 29.2493 150.975 29.0239 150.166 29.0239C149.338 29.0239 148.648 29.2493 148.098 29.7001C147.555 30.1508 147.147 30.7574 146.875 31.5197C146.61 32.2754 146.477 33.1205 146.477 34.0552C146.477 34.9832 146.61 35.8251 146.875 36.5808C147.147 37.3364 147.555 37.9397 148.098 38.3904C148.648 38.8346 149.338 39.0566 150.166 39.0566Z" fill="black"/>
</svg>
