<svg width="36" height="44" viewBox="0 0 36 44" fill="none" xmlns="http://www.w3.org/2000/svg">
<path d="M24.5038 7.01753C25.3396 6.05901 25.9769 4.94565 26.3791 3.74137C26.7812 2.5371 26.9403 1.26564 26.8473 0C24.2814 0.206098 21.8995 1.40693 20.2149 3.34378C19.4082 4.27206 18.7968 5.35198 18.4171 6.51958C18.0374 7.68719 17.8969 8.91874 18.0041 10.1413C19.2557 10.1517 20.493 9.87535 21.6201 9.33367C22.7472 8.79198 23.7339 7.99949 24.5038 7.01753ZM30.0751 23.3844C30.0899 21.6988 30.5361 20.0447 31.3716 18.5782C32.2071 17.1118 33.4044 15.8813 34.8504 15.003C33.9378 13.6946 32.7314 12.6158 31.3269 11.8521C29.9224 11.0884 28.3584 10.6608 26.7589 10.6033C23.31 10.2513 20.1265 12.6052 18.2915 12.6052C16.4565 12.6052 13.8699 10.6473 10.9959 10.6913C9.11698 10.7529 7.2862 11.298 5.6821 12.2734C4.078 13.2488 2.75536 14.6213 1.84317 16.2569C-2.04784 22.9885 0.848306 32.9978 4.73931 38.4314C6.50795 41.0933 8.71875 44.1071 11.637 43.9971C14.5553 43.8871 15.5059 42.1932 18.8884 42.1932C22.2709 42.1932 23.31 43.9971 26.1841 43.9311C29.0581 43.8651 31.092 41.2033 32.9491 38.5414C34.2646 36.6089 35.2922 34.4972 36 32.2719C34.2479 31.5283 32.753 30.2904 31.7001 28.711C30.6471 27.1315 30.0822 25.2798 30.0751 23.3844Z" fill="black"/>
</svg>
