<svg width="15" height="15" viewBox="0 0 15 15" fill="none" xmlns="http://www.w3.org/2000/svg">
<path d="M8.61984 3.78623C8.56563 3.84039 8.52263 3.90471 8.49329 3.9755C8.46395 4.04629 8.44884 4.12217 8.44884 4.1988C8.44884 4.27543 8.46395 4.3513 8.49329 4.42209C8.52263 4.49288 8.56563 4.5572 8.61984 4.61136L11.1241 7.11561H2.03241C1.87774 7.11561 1.7294 7.17705 1.62003 7.28642C1.51066 7.39579 1.44922 7.54412 1.44922 7.6988C1.44922 7.85347 1.51066 8.0018 1.62003 8.11117C1.7294 8.22054 1.87774 8.28198 2.03241 8.28198H11.1241L8.61984 10.7862C8.51042 10.8957 8.44895 11.0441 8.44895 11.1988C8.44895 11.3535 8.51042 11.5019 8.61984 11.6114C8.72926 11.7208 8.87767 11.7822 9.03241 11.7822C9.18715 11.7822 9.33555 11.7208 9.44497 11.6114L12.945 8.1118V8.11136L12.9463 8.11005C13.0004 8.05616 13.0433 7.99205 13.0724 7.92145C13.1016 7.85085 13.1164 7.77517 13.116 7.6988C13.116 7.53823 13.0513 7.39298 12.9463 7.28755L12.945 7.28623V7.2858L9.44497 3.78623C9.39081 3.73202 9.32649 3.68902 9.2557 3.65968C9.18491 3.63034 9.10904 3.61523 9.03241 3.61523C8.95578 3.61523 8.8799 3.63034 8.80911 3.65968C8.73832 3.68902 8.674 3.73202 8.61984 3.78623Z" fill="#FF8300"/>
</svg>
