<svg width="40" height="40" viewBox="0 0 40 40" fill="none" xmlns="http://www.w3.org/2000/svg">
<rect x="1.30078" y="1.2998" width="37.4" height="37.4" rx="18.7" stroke="#1D1D1D" stroke-opacity="0.2"/>
<path d="M11.2734 14.125H15.2969C16.1615 14.125 16.8984 14.2552 17.5078 14.5156C18.1172 14.776 18.5833 15.1615 18.9062 15.6719C19.2344 16.1771 19.3984 16.8021 19.3984 17.5469C19.3984 18.1146 19.2943 18.6146 19.0859 19.0469C18.8776 19.4792 18.5833 19.8438 18.2031 20.1406C17.8229 20.4323 17.3698 20.6589 16.8438 20.8203L16.25 21.1094H12.6328L12.6172 19.5547H15.3281C15.7969 19.5547 16.1875 19.4714 16.5 19.3047C16.8125 19.138 17.0469 18.9115 17.2031 18.625C17.3646 18.3333 17.4453 18.0052 17.4453 17.6406C17.4453 17.2448 17.3672 16.901 17.2109 16.6094C17.0599 16.3125 16.8255 16.0859 16.5078 15.9297C16.1901 15.7682 15.7865 15.6875 15.2969 15.6875H13.2344V25.5H11.2734V14.125ZM17.7656 25.5L15.0938 20.3906L17.1484 20.3828L19.8594 25.3984V25.5H17.7656ZM27.3359 22.5703C27.3359 22.3359 27.2995 22.1276 27.2266 21.9453C27.1589 21.763 27.0365 21.5964 26.8594 21.4453C26.6823 21.2943 26.4323 21.1484 26.1094 21.0078C25.7917 20.862 25.3854 20.7135 24.8906 20.5625C24.349 20.3958 23.849 20.2109 23.3906 20.0078C22.9375 19.7995 22.5417 19.5599 22.2031 19.2891C21.8646 19.013 21.6016 18.6979 21.4141 18.3438C21.2266 17.9844 21.1328 17.5703 21.1328 17.1016C21.1328 16.638 21.2292 16.2161 21.4219 15.8359C21.6198 15.4557 21.8984 15.1276 22.2578 14.8516C22.6224 14.5703 23.0521 14.3542 23.5469 14.2031C24.0417 14.0469 24.5885 13.9688 25.1875 13.9688C26.0312 13.9688 26.7578 14.125 27.3672 14.4375C27.9818 14.75 28.4531 15.1693 28.7812 15.6953C29.1146 16.2214 29.2812 16.8021 29.2812 17.4375H27.3359C27.3359 17.0625 27.2552 16.7318 27.0938 16.4453C26.9375 16.1536 26.6979 15.9245 26.375 15.7578C26.0573 15.5911 25.6536 15.5078 25.1641 15.5078C24.7005 15.5078 24.3151 15.5781 24.0078 15.7188C23.7005 15.8594 23.4714 16.0495 23.3203 16.2891C23.1693 16.5286 23.0938 16.7995 23.0938 17.1016C23.0938 17.3151 23.1432 17.5104 23.2422 17.6875C23.3411 17.8594 23.4922 18.0208 23.6953 18.1719C23.8984 18.3177 24.1536 18.4557 24.4609 18.5859C24.7682 18.7161 25.1302 18.8411 25.5469 18.9609C26.1771 19.1484 26.7266 19.3568 27.1953 19.5859C27.6641 19.8099 28.0547 20.0651 28.3672 20.3516C28.6797 20.638 28.9141 20.9635 29.0703 21.3281C29.2266 21.6875 29.3047 22.0964 29.3047 22.5547C29.3047 23.0339 29.2083 23.4661 29.0156 23.8516C28.8229 24.2318 28.5469 24.5573 28.1875 24.8281C27.8333 25.0938 27.4062 25.2995 26.9062 25.4453C26.4115 25.5859 25.8594 25.6562 25.25 25.6562C24.7031 25.6562 24.1641 25.5833 23.6328 25.4375C23.1068 25.2917 22.6276 25.0703 22.1953 24.7734C21.763 24.4714 21.4193 24.0964 21.1641 23.6484C20.9089 23.1953 20.7812 22.6667 20.7812 22.0625H22.7422C22.7422 22.4323 22.8047 22.7474 22.9297 23.0078C23.0599 23.2682 23.2396 23.4818 23.4688 23.6484C23.6979 23.8099 23.9635 23.9297 24.2656 24.0078C24.5729 24.0859 24.901 24.125 25.25 24.125C25.7083 24.125 26.0911 24.0599 26.3984 23.9297C26.7109 23.7995 26.9453 23.6172 27.1016 23.3828C27.2578 23.1484 27.3359 22.8776 27.3359 22.5703Z" fill="#1D1D1D"/>
</svg>
