<svg width="32" height="32" viewBox="0 0 32 32" fill="none" xmlns="http://www.w3.org/2000/svg">
<path opacity="0.4" d="M21.4355 2.66663H25.9501C27.8198 2.66663 29.3348 4.19443 29.3348 6.07991V10.6327C29.3348 12.5181 27.8198 14.0459 25.9501 14.0459H21.4355C19.5658 14.0459 18.0508 12.5181 18.0508 10.6327V6.07991C18.0508 4.19443 19.5658 2.66663 21.4355 2.66663Z" fill="#FF8300"/>
<path fill-rule="evenodd" clip-rule="evenodd" d="M6.05267 2.66663H10.5673C12.437 2.66663 13.952 4.19443 13.952 6.07991V10.6327C13.952 12.5181 12.437 14.0459 10.5673 14.0459H6.05267C4.18298 14.0459 2.66797 12.5181 2.66797 10.6327V6.07991C2.66797 4.19443 4.18298 2.66663 6.05267 2.66663ZM6.05267 17.954H10.5673C12.437 17.954 13.952 19.4818 13.952 21.3673V25.92C13.952 27.8042 12.437 29.3333 10.5673 29.3333H6.05267C4.18298 29.3333 2.66797 27.8042 2.66797 25.92V21.3673C2.66797 19.4818 4.18298 17.954 6.05267 17.954ZM25.9499 17.954H21.4353C19.5656 17.954 18.0506 19.4818 18.0506 21.3673V25.92C18.0506 27.8042 19.5656 29.3333 21.4353 29.3333H25.9499C27.8196 29.3333 29.3346 27.8042 29.3346 25.92V21.3673C29.3346 19.4818 27.8196 17.954 25.9499 17.954Z" fill="#FF8300"/>
</svg>
