<svg width="15" height="15" viewBox="0 0 15 15" fill="none" xmlns="http://www.w3.org/2000/svg">
<path d="M11.1836 1.47461C11.3383 1.47461 11.4866 1.53605 11.596 1.64542C11.7053 1.75479 11.7668 1.90313 11.7668 2.0578C11.7668 2.21247 11.7053 2.3608 11.596 2.47017C11.4866 2.57954 11.3383 2.64098 11.1836 2.64098H2.90741C2.84452 2.64098 2.7842 2.66597 2.73973 2.71044C2.69526 2.75491 2.67028 2.81522 2.67028 2.87811V11.1543C2.67028 11.309 2.60884 11.4573 2.49947 11.5667C2.3901 11.676 2.24176 11.7375 2.08709 11.7375C1.93242 11.7375 1.78409 11.676 1.67472 11.5667C1.56535 11.4573 1.50391 11.309 1.50391 11.1543V2.87811C1.50391 2.50588 1.65177 2.14889 1.91498 1.88568C2.17819 1.62248 2.53517 1.47461 2.90741 1.47461H11.1836Z" fill="#1E2329"/>
<path d="M5.23944 3.80762C4.86721 3.80762 4.51022 3.95549 4.24701 4.21869C3.98381 4.4819 3.83594 4.83889 3.83594 5.21112V12.3205C3.83594 12.6927 3.98381 13.0497 4.24701 13.3129C4.51022 13.5761 4.86721 13.724 5.23944 13.724H12.3488C12.721 13.724 13.078 13.5761 13.3412 13.3129C13.6044 13.0497 13.7523 12.6927 13.7523 12.3205V5.21112C13.7523 4.83889 13.6044 4.4819 13.3412 4.21869C13.078 3.95549 12.721 3.80762 12.3488 3.80762H5.23944ZM5.00231 5.21155C5.00231 5.08074 5.10819 4.97443 5.23944 4.97443H12.3488C12.4796 4.97443 12.5859 5.0803 12.5859 5.21155V12.3209C12.5859 12.3838 12.561 12.4441 12.5165 12.4886C12.472 12.5331 12.4117 12.5581 12.3488 12.5581H5.23944C5.2083 12.5581 5.17746 12.5519 5.14869 12.54C5.11992 12.5281 5.09378 12.5106 5.07176 12.4886C5.04975 12.4666 5.03228 12.4404 5.02036 12.4117C5.00845 12.3829 5.00231 12.3521 5.00231 12.3209V5.21155Z" fill="#1E2329"/>
</svg>
