<svg width="33" height="32" viewBox="0 0 33 32" fill="none" xmlns="http://www.w3.org/2000/svg">
<path d="M16.9883 0.00976562C8.15204 0.00976562 0.988281 7.17353 0.988281 16.0097C0.988281 24.846 8.15204 32.0098 16.9883 32.0098C25.8245 32.0098 32.9883 24.846 32.9883 16.0097C32.9883 7.17353 25.8245 0.00976562 16.9883 0.00976562ZM25.4258 20.9523C25.4247 21.3762 25.2558 21.7822 24.9561 22.082C24.6563 22.3816 24.2503 22.5506 23.8264 22.5517H10.1502C9.72633 22.5506 9.3202 22.3816 9.0205 22.082C8.72081 21.7822 8.55194 21.3762 8.55078 20.9523V12.5922L16.9845 16.7998L25.4258 12.6805V20.9523ZM25.4258 11.1035L16.992 15.2198L8.55078 11.0097C8.56691 10.5963 8.74219 10.2051 9.04002 9.91789C9.33784 9.63067 9.73515 9.46967 10.1489 9.46853H23.8264C24.2501 9.46968 24.6561 9.63847 24.9559 9.93803C25.2555 10.2376 25.4244 10.6435 25.4258 11.0673V11.1035Z" fill="#FF8300"/>
</svg>
