<svg width="13" height="11" viewBox="0 0 13 11" fill="none" xmlns="http://www.w3.org/2000/svg">
<path d="M1.71637 10.2717C1.64515 10.197 1.60126 10.1004 1.59166 9.99766C1.58207 9.89487 1.6074 9.79188 1.66355 9.70526L1.68116 9.68041L10.3516 0.759999C10.3621 0.749585 10.371 0.737705 10.378 0.724739C10.3893 0.713952 10.3993 0.70186 10.4077 0.688696L10.9589 0.122181C11.0001 0.0802403 11.0493 0.0469755 11.1035 0.0242731C11.1577 0.00157067 11.2159 -0.0100947 11.2747 -0.0100093C11.3322 -0.00986799 11.3892 0.00184748 11.4422 0.0244198C11.4952 0.0469921 11.5431 0.079963 11.5831 0.121398C11.6681 0.206434 11.7158 0.32173 11.7158 0.441922C11.7158 0.562113 11.6681 0.67736 11.5831 0.762396L10.5166 1.86012C11.4357 2.75271 12.1551 3.83007 12.6272 5.02109C12.6727 5.13531 12.6727 5.26265 12.6272 5.37687C11.37 8.3856 9.13764 10.178 6.65294 10.178H6.64658C5.5024 10.1659 4.39171 9.79014 3.47519 9.10509L2.33737 10.275C2.29703 10.3167 2.24875 10.3499 2.19535 10.3726C2.14194 10.3953 2.08456 10.407 2.02653 10.4071C1.96824 10.4075 1.91053 10.3957 1.85712 10.3724C1.80371 10.349 1.75571 10.3147 1.71637 10.2717ZM5.33094 7.18929C5.58366 7.36606 5.86918 7.49046 6.17073 7.5551C6.47229 7.61974 6.78375 7.62332 7.08672 7.56566C7.3897 7.50801 7.67809 7.39029 7.93483 7.21942C8.19158 7.04854 8.41141 6.82797 8.58155 6.57074C8.85371 6.16486 8.99655 5.68604 8.99108 5.19739C8.99226 4.71563 8.85305 4.24394 8.59045 3.84003L7.94941 4.5003C8.0581 4.71656 8.11433 4.95536 8.11363 5.19739C8.1192 5.59021 7.96875 5.96918 7.6952 6.25115C7.42165 6.53311 7.0474 6.69499 6.6546 6.70132C6.41737 6.70271 6.18355 6.64491 5.97433 6.53308L5.33094 7.18929ZM0.683596 5.37687C0.636718 5.2632 0.636718 5.1356 0.683596 5.02192C1.93837 2.0172 4.17147 0.226348 6.65137 0.226348H6.65616C7.49317 0.228504 8.31746 0.43131 9.05994 0.817707L7.10325 2.83284C6.95595 2.80613 6.80664 2.79194 6.65695 2.79039C6.02613 2.79967 5.42489 3.05914 4.98537 3.51174C4.54586 3.96433 4.30412 4.57298 4.31332 5.2038C4.31459 5.35742 4.32818 5.51066 4.35411 5.66209L2.18439 7.8944C1.55855 7.13602 1.05117 6.28723 0.679586 5.37687H0.683596Z" fill="#C0BDCC"/>
</svg>
