<svg width="20" height="20" viewBox="0 0 20 20" fill="none" xmlns="http://www.w3.org/2000/svg">
<path d="M1 11.9702V17.9702C1 19.0732 1.897 19.9702 3 19.9702H9V11.9702H1Z" fill="white"/>
<path d="M11 11.9702V19.9702H17C18.103 19.9702 19 19.0732 19 17.9702V11.9702H11Z" fill="white"/>
<path d="M18 5.97013H14.886C15.3398 5.74223 15.7563 5.4465 16.121 5.09313C16.6826 4.52968 16.9979 3.76662 16.9979 2.97112C16.9979 2.17563 16.6826 1.41257 16.121 0.849125C14.987 -0.281875 13.014 -0.282875 11.879 0.850125C10.243 2.48712 10.022 5.56812 10.002 5.91412C10 5.93313 10.01 5.95013 10.01 5.97013H9.99C9.99 5.95113 10 5.93313 9.999 5.91313C9.979 5.56712 9.758 2.48612 8.121 0.848125C6.987 -0.282875 5.012 -0.282875 3.878 0.849125C3.3165 1.4124 3.00121 2.17529 3.00121 2.97062C3.00121 3.76596 3.3165 4.52885 3.878 5.09212C4.235 5.44812 4.663 5.73513 5.114 5.96913H2C0.897 5.96913 0 6.86613 0 7.96913V10.9691H9V6.96913H11V10.9691H20V7.96913C19.9992 7.43903 19.7882 6.93088 19.4133 6.55614C19.0383 6.1814 18.5301 5.97065 18 5.97013ZM5.293 3.67812C5.15416 3.5379 5.05981 3.35981 5.02179 3.16618C4.98377 2.97255 5.00376 2.772 5.07927 2.58969C5.15478 2.40738 5.28244 2.25143 5.44624 2.14138C5.61003 2.03134 5.80267 1.97211 6 1.97113C6.268 1.97113 6.519 2.07512 6.708 2.26312C7.298 2.85312 7.642 3.91113 7.826 4.79413C6.945 4.61013 5.879 4.26412 5.293 3.67812ZM12.174 4.79612C12.358 3.91313 12.702 2.85413 13.292 2.26413C13.481 2.07513 13.733 1.97113 14 1.97113C14.267 1.97113 14.519 2.07512 14.706 2.26212C15.096 2.65312 15.097 3.28812 14.706 3.67812C14.116 4.26912 13.057 4.61312 12.174 4.79612Z" fill="white"/>
</svg>
