<svg width="33" height="33" viewBox="0 0 33 33" fill="none" xmlns="http://www.w3.org/2000/svg">
<g clip-path="url(#clip0_277_8519)">
<g clip-path="url(#clip1_277_8519)">
<g clip-path="url(#clip2_277_8519)">
<mask id="mask0_277_8519" style="mask-type:luminance" maskUnits="userSpaceOnUse" x="1" y="0" width="32" height="32">
<path d="M32.3947 0.981445H1.50781V31.8683H32.3947V0.981445Z" fill="white"/>
</mask>
<g mask="url(#mask0_277_8519)">
<path fill-rule="evenodd" clip-rule="evenodd" d="M32.3947 16.4245C32.3947 24.9535 25.4817 31.8683 16.9513 31.8683C8.42171 31.8683 1.50781 24.9535 1.50781 16.4245C1.50781 7.89583 8.42174 0.981445 16.9513 0.981445C25.4817 0.981445 32.3947 7.89583 32.3947 16.4245ZM9.61879 22.8838H12.6293V13.2503H9.61879V22.8838ZM11.0252 12.0452H11.0469C12.1784 12.0452 12.8833 11.3065 12.8833 10.3732C12.8615 9.42265 12.1784 8.70312 11.0681 8.70312C9.9571 8.70312 9.22949 9.42448 9.22949 10.3759C9.22949 11.3088 9.93586 12.0452 11.0252 12.0452ZM21.2595 22.8838H24.6729V17.527C24.6729 14.5435 22.9922 13.1576 20.8534 13.1576C19.1282 13.1576 18.0481 14.1011 17.8482 14.7621V13.2503H14.4666C14.5105 14.0531 14.4666 22.8837 14.4666 22.8837H17.8482V17.6711C17.8482 17.637 17.848 17.6028 17.8478 17.5688C17.8464 17.3138 17.8451 17.0668 17.9218 16.8837C18.1545 16.3041 18.6533 15.7034 19.5516 15.7034C20.7261 15.7034 21.2595 16.5938 21.2595 17.8985V22.8838Z" fill="#1284C7"/>
</g>
</g>
</g>
</g>
<defs>
<clipPath id="clip0_277_8519">
<rect width="31.99" height="31.99" fill="white" transform="translate(0.957031 0.429932)"/>
</clipPath>
<clipPath id="clip1_277_8519">
<rect width="31.99" height="31.99" fill="white" transform="translate(0.957031 0.429932)"/>
</clipPath>
<clipPath id="clip2_277_8519">
<rect width="31.99" height="30.8869" fill="white" transform="translate(0.957031 0.981445)"/>
</clipPath>
</defs>
</svg>
