<svg width="13" height="13" viewBox="0 0 13 13" fill="none" xmlns="http://www.w3.org/2000/svg">
<path fill-rule="evenodd" clip-rule="evenodd" d="M6.30859 12.5996C7.09653 12.5996 7.87674 12.4444 8.60469 12.1429C9.33265 11.8414 9.99408 11.3994 10.5512 10.8422C11.1084 10.2851 11.5503 9.62366 11.8519 8.89571C12.1534 8.16776 12.3086 7.38754 12.3086 6.59961C12.3086 5.81168 12.1534 5.03146 11.8519 4.30351C11.5503 3.57556 11.1084 2.91412 10.5512 2.35697C9.99408 1.79982 9.33265 1.35786 8.60469 1.05633C7.87674 0.754804 7.09653 0.599609 6.30859 0.599609C4.7173 0.599609 3.19117 1.23175 2.06595 2.35697C0.940735 3.48219 0.308594 5.00831 0.308594 6.59961C0.308594 8.19091 0.940735 9.71703 2.06595 10.8422C3.19117 11.9675 4.7173 12.5996 6.30859 12.5996ZM5.47526 4.26628V2.59961H7.14193V4.26628H5.47526ZM5.47526 10.5996V5.93294H7.14193V10.5996H5.47526Z" fill="#929AA5"/>
</svg>
