<svg width="33" height="33" viewBox="0 0 33 33" fill="none" xmlns="http://www.w3.org/2000/svg">
<g clip-path="url(#clip0_277_8528)">
<g clip-path="url(#clip1_277_8528)">
<g clip-path="url(#clip2_277_8528)">
<mask id="mask0_277_8528" style="mask-type:luminance" maskUnits="userSpaceOnUse" x="1" y="0" width="32" height="32">
<path d="M32.383 0.981445H1.49609V31.8683H32.383V0.981445Z" fill="white"/>
</mask>
<g mask="url(#mask0_277_8528)">
<path d="M11.7852 16.4247C11.7852 13.5888 14.0994 11.2747 16.9352 11.2747C19.7709 11.2747 22.0851 13.5888 22.0851 16.4247C22.0851 19.2604 19.7709 21.5746 16.9352 21.5746C14.0994 21.5746 11.7852 19.2604 11.7852 16.4247Z" fill="#E4007F"/>
<path fill-rule="evenodd" clip-rule="evenodd" d="M32.3824 15.6448C32.3821 15.9046 32.3819 16.1646 32.3819 16.4249C32.3819 16.716 32.3823 17.0067 32.3827 17.2971C32.3854 19.1347 32.3882 20.9614 32.2814 22.7996C32.1616 25.2722 31.6014 27.4629 29.7895 29.2748C27.9814 31.0829 25.7869 31.647 23.3143 31.7667C21.4453 31.8719 19.5883 31.8699 17.7197 31.8678C17.4599 31.8675 17.1999 31.8672 16.9395 31.8672C16.6798 31.8672 16.4202 31.8675 16.1609 31.8678C14.2947 31.8699 12.4372 31.8719 10.5648 31.7667C8.09219 31.647 5.9016 31.0868 4.08963 29.2748C2.28153 27.4667 1.71746 25.2722 1.59769 22.7996C1.49254 20.9306 1.4946 19.0705 1.49667 17.2036C1.49696 16.9442 1.49724 16.6847 1.49724 16.4249C1.49724 16.1651 1.49696 15.9056 1.49667 15.6462C1.4946 13.7801 1.49254 11.9226 1.59769 10.0502C1.71746 7.57754 2.27767 5.38695 4.08963 3.57499C5.89774 1.76688 8.09219 1.20281 10.5648 1.08304C12.4338 0.977896 14.2908 0.979951 16.1594 0.982019C16.4192 0.982307 16.6792 0.982594 16.9395 0.982594C17.1993 0.982594 17.4589 0.982307 17.7182 0.982019C19.5843 0.979951 21.4419 0.977892 23.3143 1.08304C25.7869 1.20281 27.9775 1.76302 29.7895 3.57499C31.5976 5.38309 32.1616 7.57754 32.2814 10.0502C32.3865 11.9191 32.3845 13.7761 32.3824 15.6448ZM9.01169 16.4249C9.01169 20.81 12.5506 24.3489 16.9357 24.3489C21.3207 24.3489 24.8597 20.81 24.8597 16.4249C24.8597 12.0398 21.3207 8.50092 16.9357 8.50092C12.5506 8.50092 9.01169 12.0398 9.01169 16.4249ZM23.3336 8.17638C23.3336 9.2002 24.1603 10.027 25.1842 10.027C26.208 10.027 27.031 9.20407 27.0348 8.17638C27.0348 7.15256 26.208 6.32577 25.1842 6.32577C24.1603 6.32577 23.3336 7.15256 23.3336 8.17638Z" fill="#E4007F"/>
</g>
</g>
</g>
</g>
<defs>
<clipPath id="clip0_277_8528">
<rect width="31.99" height="31.99" fill="white" transform="translate(0.945312 0.429932)"/>
</clipPath>
<clipPath id="clip1_277_8528">
<rect width="31.99" height="31.99" fill="white" transform="translate(0.945312 0.429932)"/>
</clipPath>
<clipPath id="clip2_277_8528">
<rect width="31.99" height="30.8869" fill="white" transform="translate(0.945312 0.981445)"/>
</clipPath>
</defs>
</svg>
