<svg width="20" height="24" viewBox="0 0 20 24" fill="none" xmlns="http://www.w3.org/2000/svg">
<path d="M13.6132 3.82775C14.0776 3.30492 14.4316 2.69763 14.655 2.04075C14.8785 1.38387 14.9669 0.690347 14.9152 0C13.4897 0.112417 12.1664 0.767416 11.2305 1.82388C10.7823 2.33022 10.4427 2.91926 10.2317 3.55614C10.0208 4.19301 9.94273 4.86477 10.0023 5.53163C10.6976 5.53729 11.385 5.38656 12.0112 5.09109C12.6373 4.79563 13.1855 4.36336 13.6132 3.82775ZM16.7084 12.7552C16.7166 11.8357 16.9645 10.9335 17.4287 10.1336C17.8929 9.33368 18.558 8.66253 19.3613 8.18346C18.8543 7.46979 18.1841 6.88134 17.4038 6.46478C16.6235 6.04822 15.7546 5.815 14.866 5.78362C12.95 5.59163 11.1814 6.87554 10.1619 6.87554C9.14252 6.87554 7.7055 5.80761 6.10882 5.83161C5.06499 5.86521 4.04789 6.16253 3.15672 6.69458C2.26556 7.22663 1.53075 7.97525 1.02398 8.86741C-1.13769 12.5392 0.471281 17.9988 2.63295 20.9626C3.61553 22.4145 4.84375 24.0584 6.465 23.9984C8.08625 23.9384 8.61439 23.0145 10.4936 23.0145C12.3727 23.0145 12.95 23.9984 14.5467 23.9624C16.1434 23.9264 17.2733 22.4745 18.3051 21.0226C19.0359 19.9685 19.6068 18.8167 20 17.6028C19.0266 17.1973 18.1961 16.522 17.6112 15.6605C17.0262 14.799 16.7123 13.789 16.7084 12.7552Z" fill="white"/>
</svg>
