<svg width="20" height="20" viewBox="0 0 20 20" fill="none" xmlns="http://www.w3.org/2000/svg">
<path fill-rule="evenodd" clip-rule="evenodd" d="M8.5 0H11.5V3H8.5V0ZM14 10C14 11.0609 13.5786 12.0783 12.8284 12.8284C12.0783 13.5786 11.0609 14 10 14C8.93913 14 7.92172 13.5786 7.17157 12.8284C6.42143 12.0783 6 11.0609 6 10C6 8.93913 6.42143 7.92172 7.17157 7.17157C7.92172 6.42143 8.93913 6 10 6C11.0609 6 12.0783 6.42143 12.8284 7.17157C13.5786 7.92172 14 8.93913 14 10ZM3.99 1.869L1.867 3.99L3.99 6.112L6.111 3.99L3.989 1.87L3.99 1.869ZM0 11.5V8.5H3V11.5H0ZM1.868 16.01L3.989 18.13L6.111 16.01L3.989 13.888L1.868 16.01ZM11.5 17V20H8.5V17H11.5ZM16.01 13.888L13.889 16.01L16.01 18.131L18.131 16.01L16.01 13.888ZM17 8.5H20V11.5H17V8.5ZM13.89 3.99L16.01 6.111L18.132 3.99L16.011 1.869L13.889 3.99H13.89Z" fill="#0B0E11"/>
</svg>
