<svg width="20" height="20" viewBox="0 0 20 20" fill="none" xmlns="http://www.w3.org/2000/svg">
<path fill-rule="evenodd" clip-rule="evenodd" d="M2.5 4.16699H17.5V7.50033C16.837 7.50033 16.2011 7.76372 15.7322 8.23256C15.2634 8.7014 15 9.33728 15 10.0003C15 10.6634 15.2634 11.2993 15.7322 11.7681C16.2011 12.2369 16.837 12.5003 17.5 12.5003V15.8337H2.5V12.5003C3.16304 12.5003 3.79893 12.2369 4.26777 11.7681C4.73661 11.2993 5 10.6634 5 10.0003C5 9.33728 4.73661 8.7014 4.26777 8.23256C3.79893 7.76372 3.16304 7.50033 2.5 7.50033V4.16699ZM12.9167 6.25033H10.8333V13.7503H12.9167V6.25033Z" fill="#929AA5"/>
</svg>
