<svg width="14" height="14" viewBox="0 0 14 14" fill="none" xmlns="http://www.w3.org/2000/svg">
<path fill-rule="evenodd" clip-rule="evenodd" d="M10.332 3.66634C10.332 4.5504 9.98084 5.39824 9.35572 6.02336C8.7306 6.64849 7.88275 6.99967 6.9987 6.99967C6.11464 6.99967 5.2668 6.64849 4.64167 6.02336C4.01655 5.39824 3.66536 4.5504 3.66536 3.66634C3.66536 2.78229 4.01655 1.93444 4.64167 1.30932C5.2668 0.684197 6.11464 0.333008 6.9987 0.333008C7.88275 0.333008 8.7306 0.684197 9.35572 1.30932C9.98084 1.93444 10.332 2.78229 10.332 3.66634ZM3.66536 8.66634C2.78131 8.66634 1.93346 9.01753 1.30834 9.64265C0.683221 10.2678 0.332031 11.1156 0.332031 11.9997V13.6663H13.6654V11.9997C13.6654 11.1156 13.3142 10.2678 12.6891 9.64265C12.0639 9.01753 11.2161 8.66634 10.332 8.66634H3.66536Z" fill="#929AA5"/>
</svg>
