<svg width="20" height="20" viewBox="0 0 20 20" fill="none" xmlns="http://www.w3.org/2000/svg">
<g clip-path="url(#clip0_905_17195)">
<path fill-rule="evenodd" clip-rule="evenodd" d="M10 7.08366C10 7.85721 9.69271 8.59907 9.14573 9.14605C8.59875 9.69303 7.85688 10.0003 7.08333 10.0003C6.30979 10.0003 5.56792 9.69303 5.02094 9.14605C4.47396 8.59907 4.16667 7.85721 4.16667 7.08366C4.16667 6.31011 4.47396 5.56825 5.02094 5.02126C5.56792 4.47428 6.30979 4.16699 7.08333 4.16699C7.85688 4.16699 8.59875 4.47428 9.14573 5.02126C9.69271 5.56825 10 6.31011 10 7.08366ZM2.5 14.167C2.5 13.504 2.76339 12.8681 3.23223 12.3992C3.70107 11.9304 4.33696 11.667 5 11.667H9.16667C9.82971 11.667 10.4656 11.9304 10.9344 12.3992C11.4033 12.8681 11.6667 13.504 11.6667 14.167V16.667H2.5V14.167ZM17.5 4.16699H13.3333V6.66699H17.5V4.16699ZM17.5 8.33533H13.3333V10.8353H17.5V8.33533ZM13.3333 12.5037H17.5V15.0037H13.3333V12.5037Z" fill="#929AA5"/>
</g>
<defs>
<clipPath id="clip0_905_17195">
<rect width="20" height="20" fill="white"/>
</clipPath>
</defs>
</svg>
