<svg width="20" height="20" viewBox="0 0 20 20" fill="none" xmlns="http://www.w3.org/2000/svg">
<path fill-rule="evenodd" clip-rule="evenodd" d="M11.5 2.5H8.5V4.18917C7.95 4.33083 7.42917 4.54833 6.95167 4.83083L5.75833 3.63583L3.63583 5.75833L4.83083 6.9525C4.54513 7.43584 4.32911 7.95709 4.18917 8.50083H2.5V11.5008H4.18917C4.33083 12.0508 4.54833 12.5717 4.83083 13.0492L3.63583 14.2417L5.7575 16.3633L6.95167 15.1683C7.42917 15.4508 7.94917 15.6683 8.5 15.81V17.5H11.5V15.8108C12.0437 15.6709 12.565 15.4549 13.0483 15.1692L14.2425 16.3642L16.3642 14.2425L15.1692 13.0475C15.4548 12.5644 15.6708 12.0434 15.8108 11.5H17.5V8.5H15.8108C15.6709 7.95626 15.4549 7.43501 15.1692 6.95167L16.3642 5.7575L14.2425 3.63583L13.0475 4.83083C12.5644 4.54519 12.0435 4.32917 11.5 4.18917V2.5ZM7.75 10C7.75 9.40326 7.98705 8.83097 8.40901 8.40901C8.83097 7.98705 9.40326 7.75 10 7.75C10.5967 7.75 11.169 7.98705 11.591 8.40901C12.0129 8.83097 12.25 9.40326 12.25 10C12.25 10.5967 12.0129 11.169 11.591 11.591C11.169 12.0129 10.5967 12.25 10 12.25C9.40326 12.25 8.83097 12.0129 8.40901 11.591C7.98705 11.169 7.75 10.5967 7.75 10Z" fill="#929AA5"/>
</svg>
