<svg width="20" height="20" viewBox="0 0 20 20" fill="none" xmlns="http://www.w3.org/2000/svg">
<path fill-rule="evenodd" clip-rule="evenodd" d="M9.16797 7.08366C9.16797 7.85721 8.86068 8.59907 8.3137 9.14605C7.76672 9.69303 7.02485 10.0003 6.2513 10.0003C5.47775 10.0003 4.73589 9.69303 4.18891 9.14605C3.64193 8.59907 3.33464 7.85721 3.33464 7.08366C3.33464 6.31011 3.64193 5.56825 4.18891 5.02126C4.73589 4.47428 5.47775 4.16699 6.2513 4.16699C7.02485 4.16699 7.76672 4.47428 8.3137 5.02126C8.86068 5.56825 9.16797 6.31011 9.16797 7.08366ZM1.66797 14.167C1.66797 13.504 1.93136 12.8681 2.4002 12.3992C2.86904 11.9304 3.50493 11.667 4.16797 11.667H8.33463C8.99768 11.667 9.63356 11.9304 10.1024 12.3992C10.5712 12.8681 10.8346 13.504 10.8346 14.167V16.667H1.66797V14.167ZM13.7513 13.3337V10.8337H11.2513V8.33366H13.7513V5.83366H16.2513V8.33366H18.7513V10.8337H16.2513V13.3337H13.7513Z" fill="#929AA5"/>
</svg>
