<svg width="20" height="20" viewBox="0 0 20 20" fill="none" xmlns="http://www.w3.org/2000/svg">
<path d="M16.4991 8.01539C16.4991 4.50852 13.6566 1.66602 10.1497 1.66602C6.64281 1.66602 3.80031 4.50852 3.80031 8.01539V14.206H2.69219C2.48167 14.206 2.27978 14.2896 2.13092 14.4385C1.98206 14.5874 1.89844 14.7892 1.89844 14.9998C1.89844 15.2103 1.98206 15.4122 2.13092 15.561C2.27978 15.7099 2.48167 15.7935 2.69219 15.7935H7.39969C7.49598 16.4541 7.82683 17.0579 8.33174 17.4945C8.83664 17.9311 9.48185 18.1714 10.1494 18.1714C10.8169 18.1714 11.4621 17.9311 11.967 17.4945C12.4719 17.0579 12.8028 16.4541 12.8991 15.7935H17.6066C17.8171 15.7935 18.019 15.7099 18.1678 15.561C18.3167 15.4122 18.4003 15.2103 18.4003 14.9998C18.4003 14.7892 18.3167 14.5874 18.1678 14.4385C18.019 14.2896 17.8171 14.206 17.6066 14.206H16.4984V8.01539H16.4991ZM5.38781 8.01539C5.38781 6.75246 5.88951 5.54126 6.78253 4.64824C7.67556 3.75521 8.88676 3.25352 10.1497 3.25352C11.4126 3.25352 12.6238 3.75521 13.5168 4.64824C14.4099 5.54126 14.9116 6.75246 14.9116 8.01539V14.206H5.38781V8.01539ZM10.1497 16.5879C9.63156 16.5879 9.19031 16.2566 9.02719 15.7941H11.2728C11.1907 16.0262 11.0386 16.2271 10.8376 16.3693C10.6366 16.5114 10.3965 16.5878 10.1503 16.5879H10.1497Z" fill="#1D1D1D"/>
</svg>
