<svg width="16" height="16" viewBox="0 0 16 16" fill="none" xmlns="http://www.w3.org/2000/svg">
<path fill-rule="evenodd" clip-rule="evenodd" d="M15.5 7.59961C15.5 8.58452 15.306 9.55979 14.9291 10.4697C14.5522 11.3797 13.9997 12.2065 13.3033 12.9029C12.6069 13.5993 11.7801 14.1518 10.8701 14.5287C9.96018 14.9056 8.98491 15.0996 8 15.0996C7.01509 15.0996 6.03982 14.9056 5.12987 14.5287C4.21993 14.1518 3.39314 13.5993 2.6967 12.9029C2.00026 12.2065 1.44781 11.3797 1.0709 10.4697C0.693993 9.55979 0.5 8.58452 0.5 7.59961C0.5 5.61049 1.29018 3.70283 2.6967 2.29631C4.10322 0.889786 6.01088 0.0996094 8 0.0996094C9.98912 0.0996094 11.8968 0.889786 13.3033 2.29631C14.7098 3.70283 15.5 5.61049 15.5 7.59961ZM9.04167 7.16794V2.18294H6.95833V8.03128L10.18 11.2529L11.6533 9.77961L9.04167 7.16794Z" fill="#B7BDC6"/>
</svg>
