<svg width="33" height="33" viewBox="0 0 33 33" fill="none" xmlns="http://www.w3.org/2000/svg">
<g clip-path="url(#clip0_277_8501)">
<g clip-path="url(#clip1_277_8501)">
<g clip-path="url(#clip2_277_8501)">
<mask id="mask0_277_8501" style="mask-type:luminance" maskUnits="userSpaceOnUse" x="1" y="0" width="32" height="32">
<path d="M32.4142 0.981445H1.52734V31.8683H32.4142V0.981445Z" fill="white"/>
</mask>
<g mask="url(#mask0_277_8501)">
<path d="M16.9708 31.8683C8.44161 31.8683 1.52734 24.9541 1.52734 16.4249C1.52734 7.89571 8.44161 0.981445 16.9708 0.981445C25.5 0.981445 32.4142 7.89571 32.4142 16.4249C32.4049 24.9502 25.4961 31.859 16.9708 31.8683ZM8.95101 14.1748C8.02691 14.1753 7.19667 14.7397 6.85617 15.5988C6.51567 16.4578 6.73384 17.4377 7.40666 18.0712C7.58452 18.2396 7.78909 18.3774 8.01205 18.4789C7.99265 18.7045 7.99265 18.9313 8.01205 19.1568C8.01205 22.6162 12.0505 25.43 17.014 25.43C21.9776 25.43 26.0176 22.6162 26.0176 19.1568C26.0355 18.9313 26.0355 18.7045 26.0176 18.4789C26.9549 18.0235 27.4507 16.9785 27.2106 15.9646C26.9705 14.9505 26.0588 14.2388 25.0168 14.252H24.935C24.3818 14.2724 23.8555 14.4962 23.457 14.8805C21.7003 13.686 19.6351 13.0262 17.5113 12.981L18.5151 8.16265L21.8169 8.8576C21.902 9.64069 22.5628 10.2343 23.3505 10.2352C23.4067 10.2351 23.4629 10.232 23.5188 10.2259C24.3376 10.1437 24.9482 9.43386 24.907 8.61195C24.8658 7.79004 24.1873 7.14493 23.3644 7.14493C23.306 7.14633 23.2478 7.15097 23.1899 7.15882C22.7004 7.21082 22.265 7.49304 22.0177 7.91864L18.2372 7.15882C18.2036 7.15164 18.1695 7.14801 18.1352 7.14801C17.912 7.15067 17.72 7.30682 17.6719 7.52483L16.5168 12.8883C14.3668 12.9188 12.2728 13.5787 10.4938 14.7863C10.0769 14.3924 9.52462 14.1735 8.95101 14.1748ZM17.2488 23.4115C17.1623 23.4115 17.0743 23.4115 16.9878 23.4115C16.9013 23.4115 16.8133 23.4115 16.7268 23.4115C15.4451 23.4067 14.1992 22.9879 13.1748 22.2177C13.1042 22.1325 13.0704 22.0226 13.0812 21.9124C13.0919 21.8022 13.1462 21.7009 13.2319 21.6309C13.3066 21.5703 13.3998 21.537 13.496 21.5367C13.5923 21.5367 13.6856 21.57 13.7601 21.6309C14.6258 22.2653 15.672 22.6057 16.7453 22.6023C16.8204 22.6023 16.8957 22.6023 16.9708 22.6023C17.0619 22.6023 17.1546 22.6023 17.2457 22.6023C18.3051 22.604 19.3382 22.2723 20.1985 21.654C20.2798 21.571 20.3911 21.5242 20.5073 21.5242C20.6236 21.5242 20.7349 21.571 20.8162 21.654C20.9837 21.8271 20.9802 22.1029 20.8085 22.2718V22.21C19.7835 22.9855 18.5341 23.4067 17.2488 23.41V23.4115ZM20.5336 19.6371H20.5089L20.5212 19.5769C19.8419 19.5306 19.2864 19.0177 19.1858 18.3444C19.0852 17.671 19.4667 17.0183 20.1028 16.7753C20.7389 16.5326 21.4583 16.7649 21.8321 17.334C22.2059 17.9032 22.1334 18.6556 21.6579 19.1429C21.3813 19.4447 20.9952 19.6228 20.5861 19.6371H20.532H20.5336ZM13.3725 19.5136C12.5195 19.5136 11.8281 18.8222 11.8281 17.9692C11.8281 17.1163 12.5195 16.4249 13.3725 16.4249C14.2254 16.4249 14.9168 17.1163 14.9168 17.9692C14.9168 18.8222 14.2254 19.5136 13.3725 19.5136Z" fill="#FF4500"/>
</g>
</g>
</g>
</g>
<defs>
<clipPath id="clip0_277_8501">
<rect width="31.99" height="31.99" fill="white" transform="translate(0.976562 0.429932)"/>
</clipPath>
<clipPath id="clip1_277_8501">
<rect width="31.99" height="31.99" fill="white" transform="translate(0.976562 0.429932)"/>
</clipPath>
<clipPath id="clip2_277_8501">
<rect width="31.99" height="30.8869" fill="white" transform="translate(0.976562 0.981445)"/>
</clipPath>
</defs>
</svg>
