<svg width="5" height="8" viewBox="0 0 5 8" fill="none" xmlns="http://www.w3.org/2000/svg">
<path d="M0.482508 0.24618C0.528931 0.199714 0.584057 0.162853 0.644734 0.137704C0.705411 0.112554 0.77045 0.0996094 0.836133 0.0996094C0.901815 0.0996094 0.966854 0.112554 1.02753 0.137704C1.08821 0.162853 1.14333 0.199714 1.18976 0.24618L4.18976 3.24618C4.23622 3.2926 4.27308 3.34773 4.29823 3.40841C4.32338 3.46908 4.33633 3.53412 4.33633 3.5998C4.33633 3.66549 4.32338 3.73053 4.29823 3.7912C4.27308 3.85188 4.23622 3.90701 4.18976 3.95343L1.18976 6.95343C1.14332 6.99987 1.08819 7.0367 1.02751 7.06184C0.966838 7.08697 0.901807 7.09991 0.836133 7.09991C0.770458 7.09991 0.705427 7.08697 0.644752 7.06184C0.584077 7.0367 0.528946 6.99987 0.482508 6.95343C0.436069 6.90699 0.399232 6.85186 0.374099 6.79118C0.348967 6.73051 0.336032 6.66548 0.336032 6.5998C0.336032 6.53413 0.348967 6.4691 0.374099 6.40842C0.399232 6.34775 0.436069 6.29262 0.482508 6.24618L3.12888 3.5998L0.482508 0.953429C0.436042 0.907006 0.399181 0.85188 0.374032 0.791203C0.348882 0.730526 0.335938 0.665487 0.335938 0.599805C0.335938 0.534122 0.348882 0.469083 0.374032 0.408406C0.399181 0.347729 0.436042 0.292603 0.482508 0.24618Z" fill="#8C8C8C" fill-opacity="0.6"/>
</svg>
