<svg width="15" height="15" viewBox="0 0 15 15" fill="none" xmlns="http://www.w3.org/2000/svg">
<g clip-path="url(#clip0_110_7041)">
<path d="M10.6081 6.16301C10.6623 6.10883 10.7053 6.04451 10.7346 5.97372C10.7639 5.90293 10.779 5.82706 10.779 5.75044C10.779 5.67382 10.7639 5.59795 10.7346 5.52717C10.7053 5.45638 10.6623 5.39206 10.6081 5.33788C10.554 5.2837 10.4896 5.24073 10.4189 5.2114C10.3481 5.18208 10.2722 5.16699 10.1956 5.16699C10.119 5.16699 10.0431 5.18208 9.9723 5.2114C9.90151 5.24073 9.83719 5.2837 9.78301 5.33788L6.69558 8.42532L5.06633 6.79607C4.95691 6.68665 4.8085 6.62518 4.65376 6.62518C4.49902 6.62518 4.35062 6.68665 4.2412 6.79607C4.13178 6.90549 4.07031 7.05389 4.07031 7.20863C4.07031 7.36337 4.13178 7.51178 4.2412 7.62119L6.28301 9.66301C6.33717 9.71722 6.40149 9.76022 6.47228 9.78956C6.54307 9.8189 6.61895 9.834 6.69558 9.834C6.77221 9.834 6.84808 9.8189 6.91887 9.78956C6.98966 9.76022 7.05398 9.71722 7.10814 9.66301L10.6081 6.16301Z" fill="#FF8300"/>
<path d="M8.09838 1.29763C7.56455 1.14167 6.99726 1.14167 6.46344 1.29763L3.12488 2.27194C2.64031 2.41343 2.21469 2.70822 1.91186 3.11209C1.60904 3.51597 1.44533 4.00715 1.44531 4.51194V6.34201C1.44532 7.93337 1.90499 9.49085 2.76905 10.8272C3.63312 12.1635 4.8648 13.2219 6.316 13.8749C6.61895 14.0109 6.94728 14.0813 7.27938 14.0813C7.61147 14.0813 7.9398 14.0109 8.24275 13.8749C9.69353 13.2218 10.9248 12.1636 11.7887 10.8275C12.6525 9.49145 13.112 7.93432 13.1121 6.34332V4.51151C13.1122 4.00681 12.9486 3.5157 12.6458 3.11189C12.343 2.70809 11.9175 2.41336 11.433 2.27194L8.09881 1.29807L8.09838 1.29763ZM6.79025 2.41763C7.11051 2.32401 7.45087 2.32401 7.77113 2.41763L11.1053 3.39151C11.3476 3.46229 11.5603 3.6097 11.7117 3.81163C11.8631 4.01357 11.9449 4.25914 11.9449 4.51151V6.34332C11.9449 7.70954 11.5503 9.04668 10.8085 10.194C10.0668 11.3414 9.00949 12.2501 7.76369 12.8109C7.6112 12.8794 7.44591 12.9149 7.27872 12.9149C7.11153 12.9149 6.94624 12.8794 6.79375 12.8109C5.5476 12.25 4.48996 11.3412 3.74799 10.1936C3.00601 9.04601 2.61128 7.70856 2.61125 6.34201V4.51194C2.61125 3.99351 2.95338 3.53719 3.45125 3.39194L6.78981 2.41763H6.79025Z" fill="#FF8300"/>
</g>
<defs>
<clipPath id="clip0_110_7041">
<rect width="14" height="14" fill="white" transform="translate(0.277344 0.5)"/>
</clipPath>
</defs>
</svg>
