<svg width="25" height="25" viewBox="0 0 25 25" fill="none" xmlns="http://www.w3.org/2000/svg">
<path d="M5.5 3.5V7.5M19.5 17.5V21.5M3.5 5.5H7.5M17.5 19.5H21.5M12.5 3.5L10.588 9.313C10.4902 9.61051 10.3238 9.88088 10.1023 10.1023C9.88088 10.3238 9.61051 10.4902 9.313 10.588L3.5 12.5L9.313 14.412C9.61051 14.5099 9.88088 14.6762 10.1023 14.8977C10.3238 15.1191 10.4902 15.3895 10.588 15.687L12.5 21.5L14.412 15.687C14.5099 15.3895 14.6762 15.1191 14.8977 14.8977C15.1191 14.6762 15.3895 14.5099 15.687 14.412L21.5 12.5L15.687 10.588C15.3895 10.4902 15.1191 10.3238 14.8977 10.1023C14.6762 9.88088 14.5099 9.61051 14.412 9.313L12.5 3.5Z" stroke="#FF8300" stroke-width="2" stroke-linecap="round" stroke-linejoin="round"/>
</svg>
