<svg width="32" height="33" viewBox="0 0 32 33" fill="none" xmlns="http://www.w3.org/2000/svg">
<g clip-path="url(#clip0_277_8484)">
<g clip-path="url(#clip1_277_8484)">
<mask id="mask0_277_8484" style="mask-type:luminance" maskUnits="userSpaceOnUse" x="-1" y="0" width="33" height="33">
<path d="M31.9861 0.429932H-0.00390625V32.4199H31.9861V0.429932Z" fill="white"/>
</mask>
<g mask="url(#mask0_277_8484)">
<path fill-rule="evenodd" clip-rule="evenodd" d="M31.9861 16.4249C31.9861 25.2587 24.8248 32.4199 15.9911 32.4199C7.1573 32.4199 -0.00390625 25.2587 -0.00390625 16.4249C-0.00390625 7.59113 7.1573 0.429932 15.9911 0.429932C24.8248 0.429932 31.9861 7.59113 31.9861 16.4249ZM10.3828 14.8655C8.7729 15.5629 7.11869 16.2795 5.60608 17.1061C4.81624 17.6797 5.86599 18.0857 6.85082 18.4664C7.00739 18.5269 7.16231 18.5868 7.30795 18.6466C7.42912 18.6835 7.55236 18.7225 7.67724 18.7619C8.77255 19.1082 9.99392 19.4943 11.0573 18.9135C12.8041 17.918 14.4527 16.767 16.0998 15.6168C16.6395 15.24 17.179 14.8634 17.7219 14.4923C17.7473 14.4762 17.776 14.4577 17.8074 14.4374C18.2699 14.14 19.3098 13.4712 18.9251 14.3929C18.0154 15.3799 17.0411 16.2536 16.0614 17.132C15.4012 17.724 14.7385 18.3182 14.0916 18.9507C13.5281 19.4048 12.9432 20.3181 13.5741 20.9541C15.0271 21.9633 16.5029 22.9481 17.9778 23.9323C18.4578 24.2525 18.9376 24.5728 19.4166 24.8937C20.2283 25.5367 21.497 25.0165 21.6754 24.0118C21.7548 23.5496 21.8345 23.0874 21.9142 22.6252C22.3545 20.0709 22.795 17.5158 23.1841 14.9532C23.237 14.5512 23.297 14.1493 23.357 13.7471C23.5023 12.7725 23.6478 11.7965 23.6933 10.8166C23.5762 9.83868 22.381 10.0537 21.7159 10.2736C18.2972 11.5642 14.9126 12.9505 11.5416 14.3611C11.1597 14.5291 10.7725 14.6967 10.3828 14.8655Z" fill="#34B0DF"/>
</g>
</g>
</g>
<defs>
<clipPath id="clip0_277_8484">
<rect width="31.99" height="31.99" fill="white" transform="translate(-0.00390625 0.429932)"/>
</clipPath>
<clipPath id="clip1_277_8484">
<rect width="31.99" height="31.99" fill="white" transform="translate(-0.00390625 0.429932)"/>
</clipPath>
</defs>
</svg>
