<svg width="30" height="26" viewBox="0 0 30 26" fill="none" xmlns="http://www.w3.org/2000/svg">
<g opacity="0.84992">
<path d="M22.3079 6.08106C21.0446 4.5569 19.3398 3.4582 17.4263 2.93492C15.5129 2.41164 13.4839 2.48928 11.6163 3.15725C9.74874 3.82521 8.13362 5.05095 6.99142 6.66714C5.84927 8.28337 5.23569 10.2113 5.23438 12.1877V14.8099" stroke="#FF8300" stroke-width="4.92496" stroke-linecap="round" stroke-linejoin="round"/>
<path d="M8.29688 20.3765C9.62169 21.7747 11.3374 22.7446 13.2219 23.1606C15.1064 23.5766 17.0728 23.4196 18.8667 22.7098C20.6605 21.9999 22.1991 20.7701 23.2832 19.1794C24.3674 17.5887 24.9472 15.7106 24.9475 13.788V12.0422" stroke="#FF8300" stroke-width="4.92496" stroke-linecap="round" stroke-linejoin="round"/>
<path d="M9.56725 12.7028C9.56174 12.8079 9.52687 12.91 9.46473 12.9986L5.38068 18.7614C5.26804 18.9198 5.08258 19.0102 4.88806 19.0001C4.69354 18.9899 4.51861 18.8806 4.42318 18.7114L0.966272 12.555C0.866078 12.3758 0.87083 12.1562 0.980547 11.982C1.08955 11.8069 1.28464 11.7056 1.49047 11.7164L9.03139 12.11C9.23724 12.1207 9.42066 12.2418 9.51068 12.4272C9.55369 12.5146 9.57216 12.6097 9.56725 12.7028Z" fill="#FF8300"/>
<path d="M20.5394 14.1654C20.543 14.0615 20.5757 13.9602 20.6354 13.8717L24.5651 8.11597C24.6736 7.9579 24.855 7.86545 25.047 7.87213C25.2391 7.87881 25.4136 7.9836 25.5107 8.14886L29.0278 14.1636C29.1297 14.3387 29.1288 14.5555 29.0236 14.7293C28.9191 14.9038 28.7284 15.0071 28.5251 15L21.0783 14.741C20.875 14.7339 20.692 14.6177 20.6 14.4363C20.556 14.3508 20.5362 14.2573 20.5394 14.1654Z" fill="#FF8300"/>
</g>
</svg>
