<svg width="136" height="137" viewBox="0 0 136 137" fill="none" xmlns="http://www.w3.org/2000/svg">
<g clip-path="url(#clip0_112_3084)">
<g clip-path="url(#clip1_112_3084)">
<mask id="mask0_112_3084" style="mask-type:luminance" maskUnits="userSpaceOnUse" x="0" y="0" width="136" height="137">
<path d="M136 0.599609H0V136.6H136V0.599609Z" fill="white"/>
</mask>
<g mask="url(#mask0_112_3084)">
<path opacity="0.8" fill-rule="evenodd" clip-rule="evenodd" d="M68.0514 83.8535C67.7793 83.889 67.5017 83.9073 67.2199 83.9073H55.4689L41.0859 96.5348L41.1683 105.387L42.8342 105.353H48.4222C48.4222 109.229 49.8603 112.762 54.311 112.762L70.3027 112.719L70.3026 83.8535H68.0514Z" fill="#CB8C54"/>
<path opacity="0.8" fill-rule="evenodd" clip-rule="evenodd" d="M73.5875 75.0294L49.4573 75.0293L43.7549 79.2106H43.6558L31.5727 91.4244L29.2757 91.397L41.3316 79.2106L34.5275 79.2105C32.7542 79.2105 31.056 79.9269 29.8185 81.1971L0 111.803V159.42L23.1038 132.935L55.9525 124.043H62.3392H64.2059C66.7022 124.043 68.7259 122.019 68.7259 119.523C68.7259 117.027 66.7022 115.003 64.2059 115.003H46.1415C43.4362 115.003 41.2361 112.824 41.2109 110.118L41.0845 96.5346L55.4675 83.9071L67.2185 83.9072C70.736 83.9072 73.5875 81.0557 73.5875 77.5382V75.0294Z" fill="#E8A37D"/>
<path d="M58.1578 83.8525H100.07C101.431 83.8525 102.535 84.9563 102.535 86.3179V112.616C102.535 113.977 101.431 115.081 100.07 115.081H58.1578C56.7962 115.081 55.6924 113.977 55.6924 112.616V86.3179C55.6924 84.9563 56.7962 83.8525 58.1578 83.8525Z" fill="#E6E8EA"/>
<path d="M97.6056 109.329H80.3477V107.685H97.6056V109.329Z" fill="#AEB4BC"/>
<path d="M93.4966 101.11H80.3477V99.4667H93.4966V101.11Z" fill="#AEB4BC"/>
<path d="M97.6056 94.5361H80.3477V92.8925H97.6056V94.5361Z" fill="#AEB4BC"/>
<path d="M60.6225 87.9619H77.0586V109.329H60.6225V87.9619Z" fill="#FAFAFA"/>
<path d="M77.0611 101.111V109.329H60.625V101.111H65.4188L68.8435 104.535L72.2672 101.111H77.0611Z" fill="url(#paint0_linear_112_3084)"/>
<path d="M64.0469 94.6026C64.047 97.2501 66.1932 99.3965 68.8407 99.3966C71.4883 99.3966 73.6345 97.2503 73.6345 94.6027C73.6345 91.9552 71.4883 89.8086 68.8407 89.8086C66.1932 89.8087 64.047 91.9552 64.0469 94.6026Z" fill="#FF8300"/>
<path fill-rule="evenodd" clip-rule="evenodd" d="M68.0013 69.363C83.6493 69.363 96.3347 56.6777 96.3347 41.0296C96.3347 25.3816 83.6493 12.6963 68.0013 12.6963C52.3533 12.6963 39.668 25.3816 39.668 41.0296C39.668 56.6777 52.3533 69.363 68.0013 69.363ZM70.1263 28.2796V45.2796H65.8763V28.2796H70.1263ZM70.1263 49.5296V53.7796H65.8763V49.5296H70.1263Z" fill="#FF8300" fill-opacity="0.2"/>
<path fill-rule="evenodd" clip-rule="evenodd" d="M88.5403 41.0299C88.5403 29.6851 79.3435 20.4883 67.9987 20.4883C56.6538 20.4883 47.457 29.6851 47.457 41.0299C47.457 52.3748 56.6538 61.5716 67.9987 61.5716C79.3435 61.5716 88.5403 52.3748 88.5403 41.0299ZM70.1237 28.2799V45.2799H65.8737V28.2799H70.1237ZM70.1237 49.5299V53.7799H65.8737V49.5299H70.1237Z" fill="#FF8300"/>
</g>
</g>
</g>
<defs>
<linearGradient id="paint0_linear_112_3084" x1="68.843" y1="101.111" x2="68.843" y2="109.329" gradientUnits="userSpaceOnUse">
<stop stop-color="#929AA5"/>
<stop offset="1" stop-color="#76808F"/>
</linearGradient>
<clipPath id="clip0_112_3084">
<rect width="136" height="136" fill="white" transform="translate(0 0.599609)"/>
</clipPath>
<clipPath id="clip1_112_3084">
<rect width="136" height="136" fill="white" transform="translate(0 0.599609)"/>
</clipPath>
</defs>
</svg>
