<svg width="15" height="15" viewBox="0 0 15 15" fill="none" xmlns="http://www.w3.org/2000/svg">
<path d="M0.214844 7.7002C0.214844 9.55671 0.952342 11.3372 2.2651 12.6499C3.57785 13.9627 5.35833 14.7002 7.21484 14.7002C9.07136 14.7002 10.8518 13.9627 12.1646 12.6499C13.4773 11.3372 14.2148 9.55671 14.2148 7.7002C14.2148 5.84368 13.4773 4.0632 12.1646 2.75045C10.8518 1.43769 9.07136 0.700195 7.21484 0.700195C5.35833 0.700195 3.57785 1.43769 2.2651 2.75045C0.952342 4.0632 0.214844 5.84368 0.214844 7.7002ZM7.21484 3.9842C7.71084 3.9842 7.95884 4.2322 7.95884 4.7282V8.3152C7.95884 8.8112 7.71084 9.05919 7.21484 9.05919C6.71884 9.05919 6.47084 8.8112 6.47084 8.3152V4.7282C6.47084 4.2322 6.71884 3.9842 7.21484 3.9842ZM7.21484 9.5842C7.79818 9.5842 8.08984 9.87586 8.08984 10.4592C8.08984 11.0425 7.79818 11.3342 7.21484 11.3342C6.63151 11.3342 6.33984 11.0425 6.33984 10.4592C6.33984 9.87586 6.63151 9.5842 7.21484 9.5842Z" fill="#FF8300"/>
</svg>
