<svg width="14" height="14" viewBox="0 0 14 14" fill="none" xmlns="http://www.w3.org/2000/svg">
<path d="M10.981 1.47279C10.7952 1.28695 10.5746 1.13953 10.3319 1.03897C10.0891 0.938408 9.82889 0.886672 9.56612 0.886719C9.30334 0.886765 9.04316 0.938593 8.80042 1.03924C8.55769 1.13989 8.33717 1.28738 8.15147 1.47329L2.39097 7.24029C2.14134 7.49045 2.00109 7.82939 2.00097 8.18279V9.66679C2.00097 9.84191 2.03546 10.0153 2.10248 10.1771C2.16949 10.3389 2.26771 10.4859 2.39154 10.6097C2.51537 10.7335 2.66237 10.8318 2.82416 10.8988C2.98595 10.9658 3.15935 11.0003 3.33447 11.0003H4.83047C5.18414 11.0003 5.52332 10.8598 5.77347 10.6098L11.5305 4.85029C11.9053 4.47517 12.1158 3.96658 12.1158 3.43629C12.1158 2.906 11.9053 2.39741 11.5305 2.02229L10.981 1.47279ZM9.09447 2.41579C9.15637 2.35384 9.22987 2.30469 9.31077 2.27116C9.39167 2.23762 9.47839 2.22037 9.56597 2.22037C9.65355 2.22037 9.74026 2.23762 9.82117 2.27116C9.90207 2.30469 9.97557 2.35384 10.0375 2.41579L10.587 2.96529C10.847 3.22579 10.847 3.64779 10.587 3.90779L4.82997 9.66729H3.33397V8.18329L9.09447 2.41579ZM1.33447 12.3338C1.1577 12.3338 0.988175 12.404 0.863182 12.529C0.738189 12.654 0.667969 12.8235 0.667969 13.0003C0.667969 13.1771 0.738189 13.3466 0.863182 13.4716C0.988175 13.5966 1.1577 13.6668 1.33447 13.6668H13.3345C13.5112 13.6668 13.6808 13.5966 13.8058 13.4716C13.9307 13.3466 14.001 13.1771 14.001 13.0003C14.001 12.8235 13.9307 12.654 13.8058 12.529C13.6808 12.404 13.5112 12.3338 13.3345 12.3338H1.33447Z" fill="#1E2329"/>
</svg>
