<svg width="10" height="8" viewBox="0 0 10 8" fill="none" xmlns="http://www.w3.org/2000/svg">
<path d="M5.19092 0.195322C5.06602 0.320341 4.99585 0.489881 4.99585 0.666657C4.99585 0.843434 5.06602 1.01297 5.19092 1.13799L7.3849 3.33332H0.998218C0.821516 3.33332 0.652052 3.40356 0.527104 3.52858C0.402158 3.65361 0.331963 3.82318 0.331963 3.99999C0.331963 4.17681 0.402158 4.34638 0.527104 4.4714C0.652052 4.59643 0.821516 4.66667 0.998218 4.66667H7.3849L5.19091 6.86199C5.06967 6.98775 5.00262 7.15612 5.00419 7.33084C5.00576 7.50557 5.07583 7.6727 5.19931 7.79626C5.32279 7.91982 5.48981 7.98992 5.66443 7.99149C5.83906 7.99306 6.00731 7.92597 6.13299 7.80465L9.46425 4.47134L9.46559 4.47001C9.52728 4.40829 9.57621 4.33501 9.60959 4.25437C9.64297 4.17373 9.66016 4.0873 9.66016 4.00001C9.66016 3.91272 9.64297 3.82629 9.60959 3.74565C9.57621 3.665 9.52728 3.59173 9.46559 3.53001L9.46425 3.52868L6.13301 0.195306C6.00807 0.0703296 5.83864 0.00012207 5.66197 0.00012207C5.48531 0.00012207 5.31588 0.0703296 5.19094 0.195306L5.19092 0.195322Z" fill="#FF8300"/>
</svg>
