<svg width="32" height="33" viewBox="0 0 32 33" fill="none" xmlns="http://www.w3.org/2000/svg">
<path fill-rule="evenodd" clip-rule="evenodd" d="M29.3299 11.6668H23.6837C21.0561 11.6715 18.9275 13.7469 18.9228 16.3088C18.9192 18.8764 21.0502 20.9611 23.6837 20.9645H29.3346V21.3725C29.3346 25.8514 26.6194 28.5 22.0244 28.5H9.97938C5.38323 28.5 2.66797 25.8514 2.66797 21.3725V11.6171C2.66797 7.13816 5.38323 4.5 9.97938 4.5H22.0197C26.6146 4.5 29.3299 7.13816 29.3299 11.6171V11.6668ZM8.98738 11.6564H16.5074H16.5121H16.5216C17.0846 11.6541 17.5397 11.2069 17.5373 10.6569C17.5349 10.108 17.0751 9.66424 16.5121 9.66655H8.98738C8.42797 9.66886 7.97404 10.1114 7.97167 10.658C7.9693 11.2069 8.42441 11.6541 8.98738 11.6564Z" fill="#FF8300"/>
<path opacity="0.4" d="M21.3858 16.8955C21.6646 18.1638 22.7766 19.056 24.0461 19.0328H28.3793C28.9075 19.0328 29.3359 18.5954 29.3359 18.0547V14.6793C29.3348 14.1397 28.9075 13.7011 28.3793 13.7H23.944C22.5 13.7046 21.3337 14.9032 21.3359 16.3803C21.3359 16.5532 21.3529 16.7261 21.3858 16.8955Z" fill="#FF8300"/>
<ellipse cx="24.0013" cy="16.3667" rx="1.33333" ry="1.33333" fill="#FF8300"/>
</svg>
