<svg width="33" height="33" viewBox="0 0 33 33" fill="none" xmlns="http://www.w3.org/2000/svg">
<g clip-path="url(#clip0_277_8510)">
<g clip-path="url(#clip1_277_8510)">
<g clip-path="url(#clip2_277_8510)">
<mask id="mask0_277_8510" style="mask-type:luminance" maskUnits="userSpaceOnUse" x="1" y="0" width="32" height="32">
<path d="M32.4025 0.981445H1.51562V31.8683H32.4025V0.981445Z" fill="white"/>
</mask>
<g mask="url(#mask0_277_8510)">
<path d="M14.3852 21.5728V12.5642L22.1069 17.0839L14.3852 21.5728ZM32.0937 10.8486C32.0937 10.8486 31.7912 8.70587 30.8659 7.76125C29.6909 6.52191 28.3743 6.51676 27.7708 6.44469C23.4492 6.12939 16.9655 6.12939 16.9655 6.12939H16.9527C16.9527 6.12939 10.469 6.12939 6.14737 6.44469C5.5425 6.51676 4.22724 6.52191 3.05096 7.76125C2.12564 8.70587 1.82449 10.8499 1.82449 10.8499C1.82449 10.8499 1.51562 13.3646 1.51562 15.8807V18.2422C1.51562 20.7595 1.82449 23.2768 1.82449 23.2768C1.82449 23.2768 2.12564 25.4195 3.05096 26.3641C4.22724 27.6035 5.77029 27.5636 6.45753 27.6936C8.92848 27.9343 16.9591 28.0076 16.9591 28.0076C16.9591 28.0076 23.4492 27.9973 27.7708 27.6833C28.3756 27.61 29.6909 27.6048 30.8659 26.3654C31.7925 25.4209 32.0937 23.2768 32.0937 23.2768C32.0937 23.2768 32.4025 20.7608 32.4025 18.2435V15.8832C32.4025 13.3659 32.0937 10.8486 32.0937 10.8486Z" fill="#FF0000"/>
</g>
</g>
</g>
</g>
<defs>
<clipPath id="clip0_277_8510">
<rect width="31.99" height="31.99" fill="white" transform="translate(0.964844 0.429932)"/>
</clipPath>
<clipPath id="clip1_277_8510">
<rect width="31.99" height="31.99" fill="white" transform="translate(0.964844 0.429932)"/>
</clipPath>
<clipPath id="clip2_277_8510">
<rect width="31.99" height="30.8869" fill="white" transform="translate(0.964844 0.981445)"/>
</clipPath>
</defs>
</svg>
